<svg width="19" height="22" viewBox="0 0 19 22" fill="none" xmlns="http://www.w3.org/2000/svg">
<path d="M2.3335 22C1.7835 22 1.31266 21.8042 0.920996 21.4125C0.529329 21.0208 0.333496 20.55 0.333496 20V2C0.333496 1.45 0.529329 0.979167 0.920996 0.5875C1.31266 0.195833 1.7835 0 2.3335 0H12.3335C12.8835 0 13.3543 0.195833 13.746 0.5875C14.1377 0.979167 14.3335 1.45 14.3335 2V6H12.3335V5H2.3335V17H12.3335V16H14.3335V20C14.3335 20.55 14.1377 21.0208 13.746 21.4125C13.3543 21.8042 12.8835 22 12.3335 22H2.3335ZM2.3335 19V20H12.3335V19H2.3335ZM11.2835 15L7.0335 10.75L8.4335 9.35L11.2835 12.2L16.9335 6.55L18.3335 7.95L11.2835 15ZM2.3335 3H12.3335V2H2.3335V3Z" fill="black"/>
</svg>
